<svg xmlns="http://www.w3.org/2000/svg" viewBox="0 0 703 630" xmlns:v="https://vecta.io/nano"><style><![CDATA[.B{fill:none}.C{stroke-width:1.5}.D{stroke:#f8c8dc}.E{stroke-dasharray:6 6}.F{fill:#f8c8dc}.G{fill-rule:nonzero}.H{fill:#d9d9d9}.I{fill-opacity:1}.J{stroke:#ff77af}.K{stroke-dasharray:0 0}.L{stroke-width:1.2}]]></style><defs><clipPath id="A"><path d="M0 0h703 0v630h0H0h0V0z" fill="#fff" clip-rule="nonzero"/></clipPath></defs><g clip-path="url(#A)"><path d="M0 0h703 0v630h0H0h0V0z" fill="#fff" style="mix-blend-mode:NORMAL"/><defs><filter id="B" x="-100%" y="-100%" width="300%" height="300%"><feOffset in="SourceGraphic"/><feGaussianBlur stdDeviation="7" result="B"/><feFlood flood-color="rgb(0 0 0)" flood-opacity=".15"/><feComposite operator="in" in2="B" result="D"/><feMerge><feMergeNode in="D"/><feMergeNode in="SourceGraphic"/></feMerge></filter></defs><g filter="url(#B)"/><g style="mix-blend-mode:NORMAL"><path d="M550.615 270v136c.833 7.333-1 20.9-15 16.5s-210.5-57.833-316.5-86.5c-5-1.667-15.999-2.5-16 16" class="B C D E"/><path d="M203.865 351.714l4.565-4.476a.75.75 0 0 1 1.061.009.75.75 0 0 1-.011 1.06l-5.84 5.728a.75.75 0 0 1-1.05 0l-5.839-5.729a.75.75 0 0 1-.01-1.061.75.75 0 0 1 1.061-.009l4.564 4.476h1.5z" class="F"/></g><g style="mix-blend-mode:NORMAL"><path d="M165 275l104.5 27.5c4.833 1.333 16 1.5 16-10V278" class="B C D E"/><path d="M284.75 278.286l-4.565 4.476a.75.75 0 0 1-1.061-.009.75.75 0 0 1 .01-1.06l5.84-5.728a.75.75 0 0 1 1.05 0l5.84 5.728a.75.75 0 0 1 .01 1.06.75.75 0 0 1-1.06.009l-4.565-4.476h-1.5z" class="F"/></g><g style="mix-blend-mode:NORMAL"><path d="M305 469c12.645 4.4 135.608 39.463 160 47" class="B C D E"/><path d="M464.948 515.199l-2.929-5.682a.75.75 0 0 1 .322-1.011.75.75 0 0 1 1.01.323l3.749 7.27a.75.75 0 0 1-.31 1.003l-7.197 3.888a.75.75 0 0 1-1.016-.303.75.75 0 0 1 .304-1.016l5.624-3.04.443-1.433z" class="F"/></g><g style="mix-blend-mode:NORMAL"><g transform="matrix(.997039 -.076903 .076903 .997039 379 161)"><path d="M0 0l44 15" class="B C D E"/><path d="M43.978 14.198l-2.72-5.785a.75.75 0 0 1 .358-.998.75.75 0 0 1 .998.36l3.482 7.402a.75.75 0 0 1-.346.991l-7.334 3.624a.75.75 0 0 1-1.005-.34.75.75 0 0 1 .341-1.004l5.731-2.833.495-1.416z" class="F"/></g></g><g transform="translate(253 134)"><defs><mask id="C" x="-50%" y="-50%" width="200%" height="200%" mask-type="alpha"><g transform="translate(9 309)"><g id="D" opacity="1"><path d="M40 20c0 11.046-8.954 20-20 20S0 31.046 0 20 8.954 0 20 0s20 8.954 20 20z" style="mix-blend-mode:NORMAL" class="G H I"/></g></g></mask></defs><g mask="url(#C)" class="B J K L"><g transform="translate(51.885 334.67)"><g style="mix-blend-mode:NORMAL"><path d="M0 0c12.645 4.4 135.608 39.463 160 47"/></g></g></g><defs><mask id="E" x="-50%" y="-50%" width="200%" height="200%" mask-type="alpha"><g transform="translate(278 96)"><g id="F" opacity="1"><path d="M40 20c0 11.046-8.954 20-20 20S0 31.046 0 20 8.954 0 20 0s20 8.954 20 20z" style="mix-blend-mode:NORMAL" class="G H I"/></g></g></mask></defs><g mask="url(#E)" class="B J K L"><g transform="translate(-50 135.67)"><g style="mix-blend-mode:NORMAL"><path d="M347.5 0v136c.833 7.333-1 20.9-15 16.5S122 94.667 16 66C11 64.333.001 63.5 0 82"/></g></g></g><defs><mask id="G" x="-50%" y="-50%" width="200%" height="200%" mask-type="alpha"><g transform="translate(86)"><g id="H" opacity="1"><path d="M40 20c0 11.046-8.954 20-20 20S0 31.046 0 20 8.954 0 20 0s20 8.954 20 20z" style="mix-blend-mode:NORMAL" class="G H I"/></g></g></mask></defs><g mask="url(#G)" class="B C J K"><g transform="matrix(.997039 -.076903 .076903 .997039 126 27)"><g style="mix-blend-mode:NORMAL"><path d="M0 0c10.7 4.4 23.361 7.463 44 15"/></g></g></g><defs><mask id="I" x="-50%" y="-50%" width="200%" height="200%" mask-type="alpha"><g transform="translate(-129 117)"><g id="J" opacity="1"><path d="M40 20c0 11.046-8.954 20-20 20S0 31.046 0 20 8.954 0 20 0s20 8.954 20 20z" style="mix-blend-mode:NORMAL" class="G H I"/></g></g></mask></defs><g mask="url(#I)" class="B J K L"><g transform="translate(-88 141)"><g style="mix-blend-mode:NORMAL"><path d="M0 0l104.5 27.5c4.833 1.333 16 1.5 16-10V3"/></g></g></g></g></g><g fill="freeze"><animateTransform href="#D" attributeName="transform" type="translate" values="0 0;0 0;207 58;207 58" dur="11s" repeatCount="indefinite" calcMode="spline" keyTimes="0;0.41;0.48;1" keySplines="0 0 0.15 1;0 0 1 1;0.5 0.35 1 1" additive="sum"/><animateTransform href="#F" attributeName="transform" type="translate" values="0 0;0 0;-3 171;-343 87;-351 125;-351 125" dur="11s" repeatCount="indefinite" calcMode="spline" keyTimes="0;0.25;0.31;0.37;0.38;1" keySplines="0 0 0.15 1;0 0 1 1;0 0 1 1;0 0 1 1;0.5 0.35 1 1" additive="sum"/><animateTransform href="#H" attributeName="transform" type="translate" values="0 0;0 0;86 24;86 24" dur="11s" repeatCount="indefinite" calcMode="spline" keyTimes="0;0.14;0.23;1" keySplines="0 0 0.15 1;0 0 1 1;0.5 0.35 1 1" additive="sum"/><animateTransform href="#J" attributeName="transform" type="translate" values="0 0;148 31;142 -13;143 -32;143 -32" dur="11s" repeatCount="indefinite" calcMode="spline" keyTimes="0;0.04;0.08;0.12;1" keySplines="0 0 1 1;0 0 1 1;0 0 1 1;0.5 0.35 1 1" additive="sum"/></g></svg>