<svg width="64" height="34" viewBox="0 0 64 34" fill="none" xmlns="http://www.w3.org/2000/svg">
<path d="M33.8356 16.9846C33.8356 16.1007 33.8307 15.2304 33.6989 14.4624H17.7373V22.1402H22.4752C22.4752 22.9076 20.2852 24.4853 16.9994 24.4853C13.3847 24.4853 9.29233 21.6435 9.21054 17.0713C9.12514 12.3343 13.2233 9.23621 16.9994 9.37111C20.0661 9.48065 21.2373 10.36 22.9474 12.0433C22.9474 12.0433 32.8985 12.0509 33.1593 12.0509C32.8626 10.9105 32.1278 9.18732 30.8706 7.40352C30.7656 7.25504 30.6585 7.10536 30.5453 6.95689C28.0312 3.61048 23.663 0.213071 16.8757 0.205828C8.90092 0.194662 2.74587 5.52616 0.716117 12.0539C0.691975 12.1327 0.668738 12.2114 0.644898 12.2908C0.644898 12.2944 0.643389 12.2999 0.64188 12.3029C0.225126 13.7635 0 15.305 0 16.8968C0.0150889 18.4211 0.213055 19.8802 0.572773 21.2569C1.85352 26.0196 5.18695 29.9502 9.57569 32.0584C9.611 32.075 9.64601 32.0922 9.68222 32.1079C9.70485 32.12 9.72809 32.1287 9.74891 32.1393C11.9637 33.1466 14.4515 33.7076 17.093 33.7285C22.694 33.6832 27.6479 30.9424 30.7001 26.748C30.7626 26.6614 33.8356 22.2163 33.8356 16.9846Z" fill="#303030"/>
<path d="M59.0542 26.675C59.0542 26.675 62.1649 22.7024 62.1767 17.4129C62.2014 7.02481 54.9247 0.320528 44.7732 0.30544C38.8921 0.296386 33.4701 3.42431 30.6935 7.17721C28.2237 10.5161 27.8166 13.2979 27.8166 15.3213C27.6995 17.8387 27.947 19.0292 27.947 19.0292C28.3055 21.6504 29.3231 24.2288 30.8854 26.4777C33.8419 30.7348 38.7509 33.8199 44.8314 33.8199C48.8668 33.8205 51.7213 31.9251 52.237 31.651L53.3065 32.8895H63.643L59.0542 26.675ZM52.7618 19.3856L51.8794 18.3013H41.3933L45.6565 24.3526C41.2204 25.222 37.0275 21.4525 37.0887 17.1347C37.1509 12.723 40.7113 9.44627 44.9687 9.47494C49.6427 9.50452 54.3051 14.5717 52.7618 19.3856Z" fill="#303030"/>
<g opacity="0.5">
<path d="M33.1601 12.0556C32.8634 10.9152 32.1286 9.18994 30.8714 7.40704C30.8189 7.33129 30.7619 7.25555 30.7079 7.1792C30.7033 7.18523 30.6982 7.19127 30.6937 7.19731C29.3674 8.98926 28.6371 10.618 28.2441 12.0544C30.6674 12.055 33.0346 12.0556 33.1601 12.0556Z" fill="#868686"/>
<path d="M33.8359 16.9849C33.8359 16.101 33.831 15.2307 33.6992 14.4626H27.845C27.8257 14.4626 27.8166 15.0565 27.8166 15.3354C27.6995 17.8531 27.947 19.0355 27.947 19.0355C28.304 21.6549 29.3207 24.2288 30.8803 26.4755C31.5472 25.4283 33.8359 21.4998 33.8359 16.9849Z" fill="#868686"/>
</g>
</svg>
