<svg width="35" height="35" viewBox="0 0 35 35" fill="none" xmlns="http://www.w3.org/2000/svg">
<path fill-rule="evenodd" clip-rule="evenodd" d="M19.0456 15.2831C19.0516 15.2831 19.0565 15.2782 19.0565 15.2722C19.0565 15.2612 19.0408 15.2563 19.0345 15.2654C19.0342 15.2659 19.0338 15.2664 19.0335 15.2669C19.0286 15.274 19.0339 15.2831 19.0425 15.2831H19.0456Z" fill="#303030"/>
<path fill-rule="evenodd" clip-rule="evenodd" d="M5.64453 0.0129395C2.88311 0.0129395 0.644531 2.25152 0.644531 5.01294V29.0129C0.644531 31.7744 2.88311 34.0129 5.64453 34.0129H29.6445C32.406 34.0129 34.6445 31.7744 34.6445 29.0129V5.01294C34.6445 2.25152 32.406 0.0129395 29.6445 0.0129395H5.64453ZM11.2198 25.737C11.2198 27.13 10.0906 28.2592 8.6976 28.2592C7.30463 28.2592 6.1754 27.13 6.1754 25.737V15.605C6.1754 14.2121 7.30463 13.0828 8.6976 13.0828C10.0906 13.0828 11.2198 14.2121 11.2198 15.605V25.737ZM8.6976 11.0115H8.66427C6.97212 11.0115 5.8753 9.84566 5.8753 8.38852C5.8753 6.8994 7.00418 5.76664 8.73063 5.76664C10.4575 5.76664 11.5186 6.8994 11.5517 8.38852C11.5517 9.84566 10.4575 11.0115 8.6976 11.0115ZM29.4138 25.7364C29.4138 27.1297 28.2842 28.2592 26.8909 28.2592C25.4975 28.2592 24.368 27.1297 24.368 25.7364V20.1398C24.368 18.1005 23.639 16.7084 21.8128 16.7084C20.4181 16.7084 19.5893 17.6457 19.2242 18.5536C19.0915 18.8779 19.0568 19.3288 19.0568 19.7835V25.7422C19.0568 27.1323 17.9299 28.2593 16.5397 28.2593C15.1447 28.2593 14.0156 27.129 14.021 25.7339C14.0319 22.9555 14.046 18.5076 14.0377 15.6622C14.0336 14.2558 15.187 13.0829 16.5934 13.0829H18.5652C18.8367 13.0829 19.0568 13.303 19.0568 13.5746C19.0568 14.064 19.7484 14.2876 20.1126 13.9606C20.8616 13.2882 21.9505 12.7266 23.6043 12.7266C26.9249 12.7266 29.4138 14.8952 29.4138 19.5564V25.7364Z" fill="#303030"/>
</svg>
