<svg width="129" height="20" viewBox="0 0 129 20" fill="none" xmlns="http://www.w3.org/2000/svg">
<path d="M19.8406 10.1192C19.8406 15.4317 15.5313 19.7242 10.2406 19.7242C4.94996 19.7242 0.640625 15.4742 0.640625 10.1192C0.640625 4.76416 4.94996 0.51416 10.2406 0.51416C15.5313 0.51416 19.8406 4.80666 19.8406 10.1192Z" fill="black"/>
<path d="M30.3796 10.1192C30.3796 15.1342 28.2463 19.1716 25.6009 19.1716C22.9556 19.1716 20.8223 15.1342 20.8223 10.1192C20.8223 5.10415 22.9556 1.06665 25.6009 1.06665C28.2036 1.06665 30.3796 5.14665 30.3796 10.1192Z" fill="black"/>
<path d="M34.6458 10.1192C34.6458 14.5817 33.8778 18.2367 32.9391 18.2367C32.0004 18.2367 31.2324 14.5817 31.2324 10.1192C31.2324 5.65671 32.0004 2.00171 32.9391 2.00171C33.9204 2.00171 34.6458 5.65671 34.6458 10.1192Z" fill="black"/>
<path d="M61.141 1.36426L61.1837 1.15176H55.7224L50.645 13.0093L45.5677 1.15176H39.6797V1.36426H39.7224C40.7037 1.57676 41.2157 1.91676 41.2157 3.10676V17.2168C41.2157 18.4068 40.7037 18.7468 39.7224 18.9593H39.6797V19.1718H43.6904V18.9593H43.6477C42.6664 18.7468 42.1544 18.4068 42.1544 17.2168V3.91426L48.6824 19.1718H49.0664L55.765 3.48926V17.5568C55.6797 18.4918 55.1677 18.7893 54.2717 19.0018H54.229V19.2143H61.1837V19.0018H61.141C60.245 18.7893 59.733 18.4918 59.6477 17.5568V3.10676C59.6477 1.91676 60.1597 1.57676 61.141 1.36426ZM64.341 10.6718C64.469 8.12176 65.365 6.29426 66.901 6.29426C67.3704 6.29426 67.7544 6.46426 68.0957 6.76176C68.7357 7.39926 69.077 8.71676 68.9917 10.7143H64.341V10.6718ZM64.2557 11.3943H72.405V11.3518C72.3624 9.39676 71.8077 7.90926 70.741 6.88926C69.8024 5.99676 68.3944 5.48676 66.9437 5.48676H66.901C66.133 5.48676 65.1944 5.65676 64.5544 5.99676C63.7864 6.33676 63.1464 6.84676 62.5917 7.52676C61.6957 8.63176 61.1837 10.1193 61.013 11.7768C61.013 11.8193 61.013 11.8618 61.013 11.9468C61.013 11.9893 61.013 12.0318 61.013 12.0743C61.013 12.1593 61.013 12.2443 61.013 12.3293C61.013 12.4568 61.013 12.6268 61.013 12.7543C61.0984 16.5368 63.1464 19.5543 66.773 19.5543C69.973 19.5543 71.8077 17.2168 72.277 14.1143L72.0637 14.0293C71.253 15.6868 69.8024 16.7068 68.1384 16.5793C65.8344 16.4943 64.085 14.1993 64.2557 11.3943ZM81.621 16.5368C81.365 17.1743 80.8104 17.5143 80.0424 17.5143C79.2744 17.5143 78.5917 17.0043 78.1224 16.0693C77.6104 15.0918 77.3117 13.6468 77.3117 11.9893C77.3117 8.50426 78.3784 6.25176 80.085 6.25176C80.7677 6.25176 81.3224 6.59176 81.621 7.18676V16.5368ZM86.997 19.0018C86.0157 18.7468 85.5037 18.4068 85.5037 17.1318V0.301758L79.445 2.08676V2.29926H79.4877C80.341 2.21426 80.8957 2.34176 81.237 2.63926C81.493 2.89426 81.621 3.23426 81.621 3.74426V6.03926C81.0237 5.65676 80.2984 5.48676 79.445 5.48676C77.6957 5.48676 76.117 6.20926 74.965 7.56926C73.7704 8.97176 73.1304 10.8418 73.1304 13.0518C73.1304 16.9618 75.0504 19.5968 77.9517 19.5968C79.6584 19.5968 80.981 18.6618 81.621 17.1318V19.2143H87.0397L86.997 19.0018ZM92.2024 2.59676C92.2024 1.36426 91.2637 0.429257 90.0264 0.429257C88.789 0.429257 87.8504 1.36426 87.8504 2.59676C87.8504 3.82926 88.789 4.76426 90.0264 4.76426C91.2637 4.76426 92.2024 3.82926 92.2024 2.59676ZM93.6104 19.0018C92.629 18.7468 92.117 18.4068 92.117 17.1318V5.52926L86.6984 7.10176V7.31426H86.741C87.9357 7.39926 88.2344 7.82426 88.2344 9.18426V19.2143H93.653L93.6104 19.0018ZM107.562 19.0018C106.581 18.7468 106.069 18.4068 106.069 17.1318V5.52926L100.864 7.05926V7.27176H100.906C101.888 7.35676 102.144 7.78176 102.144 9.18426V16.5368C101.802 17.1743 101.205 17.5568 100.48 17.5568C99.285 17.5568 98.645 16.7493 98.645 15.3043V5.52926L93.2264 7.10176V7.31426H93.269C94.4637 7.39926 94.7624 7.82426 94.7624 9.18426V15.3893C94.7624 15.8143 94.805 16.2393 94.8904 16.6643L94.9757 17.0893C95.445 18.7468 96.6397 19.5968 98.517 19.5968C100.096 19.5968 101.504 18.6193 102.144 17.0893V19.2143H107.562V19.0018ZM128.64 19.2143V19.0018H128.597C127.53 18.7468 127.104 18.2793 127.104 17.3443V9.43926C127.104 6.97426 125.696 5.52926 123.392 5.52926C121.685 5.52926 120.277 6.50676 119.722 8.03676C119.296 6.42176 118.016 5.52926 116.181 5.52926C114.56 5.52926 113.28 6.37926 112.725 7.82426V5.57176L107.306 7.05926V7.27176H107.349C108.501 7.35676 108.842 7.78176 108.842 9.14176V19.2568H113.92V19.0443H113.877C113.024 18.8318 112.725 18.4918 112.725 17.5143V8.41926C112.938 7.90926 113.408 7.27176 114.304 7.27176C115.413 7.27176 116.01 8.03676 116.01 9.56676V19.2143H121.088V19.0018H121.045C120.192 18.7893 119.893 18.4493 119.893 17.4718V9.43926C119.893 9.14176 119.85 8.84426 119.808 8.54676C120.064 7.95176 120.533 7.27176 121.472 7.27176C122.624 7.27176 123.178 8.03676 123.178 9.56676V19.2143H128.64Z" fill="black"/>
</svg>
