<svg width="38" height="35" viewBox="0 0 38 35" fill="none" xmlns="http://www.w3.org/2000/svg">
<path d="M37.6418 17.8628C37.6438 17.577 37.4943 17.311 37.2477 17.1616H37.2434L37.2279 17.1531L24.407 9.65608C24.3516 9.61913 24.2942 9.58536 24.2349 9.55494C23.7399 9.30265 23.1518 9.30265 22.6568 9.55494C22.5975 9.58538 22.54 9.61913 22.4847 9.65608L9.66379 17.1531L9.64832 17.1616C9.25647 17.4023 9.13634 17.9112 9.38001 18.2983C9.45181 18.4124 9.5507 18.5074 9.6681 18.5751L22.489 26.0721C22.5446 26.1087 22.602 26.1425 22.6611 26.1733C23.1561 26.4256 23.7442 26.4256 24.2392 26.1733C24.2983 26.1425 24.3558 26.1088 24.4113 26.0721L37.2322 18.5751C37.4884 18.4276 37.6447 18.1557 37.6418 17.8628Z" fill="#929292"/>
<path d="M11.1582 12.8573H19.5719V20.4758H11.1582V12.8573ZM35.9207 5.11294V1.62793C35.9409 0.756601 35.2427 0.0338185 34.3607 0.0129395H12.5273C11.6452 0.0338185 10.947 0.756601 10.9672 1.62793V5.11294L23.8742 8.51293L35.9207 5.11294Z" fill="#4D4D4D"/>
<path d="M10.9688 5.11304H19.5734V12.763H10.9688V5.11304Z" fill="#5C5C5C"/>
<path d="M28.1769 5.11304H19.5723V12.763L28.1769 20.413H35.9211V12.763L28.1769 5.11304Z" fill="#858585"/>
<path d="M19.5723 12.7629H28.1769V20.4129H19.5723V12.7629Z" fill="#5C5C5C"/>
<path d="M19.5723 20.4128H28.1769V28.0628H19.5723V20.4128Z" fill="#4D4D4D"/>
<path d="M11.1582 20.4758H19.5718V27.4016H11.1582V20.4758Z" fill="black"/>
<path d="M28.1777 20.4128H35.9219V28.0628H28.1777V20.4128Z" fill="#5C5C5C"/>
<path d="M37.2493 18.5286L37.2329 18.5371L24.412 25.6601C24.3561 25.6941 24.2993 25.7264 24.2399 25.7553C24.0221 25.8577 23.7856 25.9155 23.5447 25.9253L22.8442 25.5207C22.7851 25.4913 22.7276 25.4587 22.6721 25.4229L9.67913 18.0976H9.67311L9.24805 17.863V32.2824C9.25467 33.2445 10.0493 34.0191 11.0232 34.013H35.8958C35.9104 34.013 35.9233 34.0062 35.9388 34.0062C36.1445 33.9932 36.3473 33.9514 36.5411 33.8821C36.6249 33.8471 36.7057 33.8056 36.7829 33.758C36.8405 33.7257 36.9395 33.6552 36.9395 33.6552C37.3803 33.333 37.6412 32.8241 37.6434 32.2825V17.863C37.6431 18.1388 37.4925 18.3931 37.2493 18.5286Z" fill="url(#paint0_linear_993_696)"/>
<path opacity="0.5" d="M36.9541 17.8059V18.6899L23.5481 27.8078L9.66881 18.1034C9.66881 18.0987 9.66495 18.0949 9.6602 18.0949L8.38672 17.3384V16.7009L8.91161 16.6924L10.0216 17.3214L10.0474 17.3299L10.142 17.3894C10.142 17.3894 23.1867 24.7419 23.2211 24.7589L23.7202 25.0479C23.7632 25.0309 23.8062 25.0139 23.8578 24.9969C23.8837 24.9799 36.8078 17.7974 36.8078 17.7974L36.9541 17.8059Z" fill="#929292"/>
<path d="M37.2493 18.5286L37.2329 18.5379L24.412 25.6609C24.3561 25.6949 24.2993 25.7272 24.2399 25.7561C23.742 25.9964 23.1597 25.9964 22.6618 25.7561C22.6028 25.7273 22.5454 25.6955 22.4897 25.6609L9.66881 18.5379L9.65333 18.5286C9.4058 18.396 9.25061 18.1412 9.24805 17.863V32.2824C9.25421 33.2443 10.0486 34.0191 11.0222 34.013C11.0222 34.013 11.0223 34.013 11.0223 34.013H35.8691C36.8428 34.0192 37.6372 33.2444 37.6434 32.2825C37.6434 32.2825 37.6434 32.2825 37.6434 32.2824V17.863C37.643 18.1388 37.4925 18.3931 37.2493 18.5286Z" fill="#585C5E"/>
<path opacity="0.1" d="M24.5969 25.5554L24.4051 25.6617C24.3494 25.6966 24.292 25.7287 24.233 25.7577C24.0216 25.8602 23.7917 25.9203 23.5566 25.9345L28.4346 31.6329L36.9438 33.6585C37.1769 33.4845 37.3624 33.2557 37.4833 32.9929L24.5969 25.5554Z" fill="#303030"/>
<path opacity="0.05" d="M25.466 25.0725L24.4051 25.6616C24.3494 25.6965 24.292 25.7286 24.233 25.7576C24.0216 25.8601 23.7917 25.9202 23.5566 25.9344L25.842 32.1589L36.9463 33.6558C37.3838 33.3313 37.6413 32.8226 37.6416 32.2822V32.096L25.466 25.0725Z" fill="#303030"/>
<path d="M11.0464 34.013H35.8665C36.2484 34.0149 36.6209 33.8958 36.9292 33.673L22.8434 25.5224C22.7842 25.493 22.7267 25.4604 22.6713 25.4246L9.67827 18.0993H9.67224L9.24805 17.863V32.2331C9.24708 33.2152 10.0522 34.0121 11.0464 34.013Z" fill="#858585"/>
<path opacity="0.1" d="M21.2946 8.37103V26.5015C21.293 27.1372 20.9017 27.7086 20.305 27.9465C20.1202 28.025 19.9211 28.0655 19.7199 28.0655H9.24805V7.66298H10.969V6.81299H19.7199C20.5892 6.81624 21.2927 7.51232 21.2946 8.37103Z" fill="#303030"/>
<path opacity="0.2" d="M20.4341 9.22096V27.3514C20.4363 27.5568 20.3922 27.76 20.305 27.9464C20.0661 28.5283 19.4951 28.91 18.8594 28.9129H9.24805V7.66291H18.8594C19.1091 7.66044 19.3552 7.72196 19.5736 7.84142C20.1011 8.10393 20.4339 8.63752 20.4341 9.22096Z" fill="#303030"/>
<path opacity="0.2" d="M20.4341 9.22096V25.6514C20.4299 26.5098 19.7283 27.2055 18.8595 27.2129H9.24805V7.66291H18.8594C19.1091 7.66044 19.3552 7.72196 19.5736 7.84142C20.1011 8.10393 20.4339 8.63752 20.4341 9.22096Z" fill="#303030"/>
<path opacity="0.2" d="M19.5736 9.22089V25.6514C19.5727 26.511 18.8692 27.2086 17.999 27.2128H9.24805V7.66284H17.999C18.8691 7.6633 19.5741 8.36049 19.5736 9.22005C19.5736 9.22033 19.5736 9.22061 19.5736 9.22089Z" fill="#303030"/>
<path d="M2.2198 7.66309H17.9956C18.8666 7.66309 19.5728 8.36066 19.5728 9.22113V24.805C19.5728 25.6655 18.8666 26.3631 17.9956 26.3631H2.2198C1.34872 26.3631 0.642578 25.6655 0.642578 24.805V9.22113C0.642578 8.36066 1.34874 7.66309 2.2198 7.66309Z" fill="url(#paint1_linear_993_696)"/>
<path d="M5.5718 14.1977C5.96053 13.3795 6.58799 12.6948 7.37362 12.2316C8.24365 11.7396 9.23426 11.4943 10.2364 11.5227C11.1652 11.5028 12.0817 11.7354 12.8858 12.1951C13.6418 12.6404 14.2507 13.293 14.6385 14.0736C15.0609 14.9337 15.2714 15.8803 15.2529 16.8361C15.2734 17.835 15.0568 18.8247 14.6205 19.7261C14.2234 20.5345 13.5951 21.2103 12.8135 21.67C11.9784 22.1438 11.0279 22.3824 10.0652 22.3602C9.11652 22.3828 8.17982 22.1476 7.35727 21.6802C6.59472 21.2343 5.97819 20.581 5.58127 19.7983C5.15637 18.9506 4.94335 18.0147 4.96002 17.0689C4.94232 16.0786 5.15146 15.097 5.5718 14.1977ZM7.49235 18.8132C7.69961 19.3304 8.05109 19.779 8.50598 20.1069C8.96931 20.4268 9.52413 20.5918 10.0892 20.5778C10.691 20.6013 11.2842 20.4306 11.7792 20.0916C12.2283 19.7647 12.5706 19.3149 12.7635 18.7979C12.9793 18.2204 13.0858 17.6087 13.0776 16.9933C13.0843 16.372 12.9842 15.7541 12.7816 15.1658C12.6027 14.6347 12.2715 14.1664 11.8282 13.8177C11.3457 13.4626 10.7541 13.2825 10.1529 13.3077C9.57555 13.293 9.00831 13.4593 8.53265 13.7829C8.07006 14.1121 7.71192 14.5647 7.50009 15.0876C7.03019 16.2862 7.02774 17.6146 7.4932 18.8149L7.49235 18.8132Z" fill="white"/>
<path d="M28.1777 5.11304H35.9219V12.763H28.1777V5.11304Z" fill="#B8B8B8"/>
<defs>
<linearGradient id="paint0_linear_993_696" x1="23.4457" y1="17.863" x2="23.4457" y2="34.0131" gradientUnits="userSpaceOnUse">
<stop stop-color="#0A0A0A"/>
<stop offset="1" stop-color="#28A8EA"/>
</linearGradient>
<linearGradient id="paint1_linear_993_696" x1="3.93114" y1="6.44566" x2="16.0589" y2="27.709" gradientUnits="userSpaceOnUse">
<stop stop-color="#393C3F"/>
<stop offset="0.5" stop-color="#505050"/>
<stop offset="1" stop-color="#26282B"/>
</linearGradient>
</defs>
</svg>
